<svg width="18" height="18" viewBox="0 0 18 18" fill="none" xmlns="http://www.w3.org/2000/svg">
<g clip-path="url(#clip0_454_34287)">
<path d="M13.3778 9.35375C13.3868 9.3363 13.4014 9.3217 13.4093 9.30368C13.564 8.98192 13.5134 8.58819 13.2394 8.32941L7.03 2.45637C6.69137 2.1363 6.15758 2.15148 5.83694 2.48957C5.51687 2.82821 5.53151 3.362 5.87014 3.68264L11.4417 8.95325L5.89206 14.3021C5.55682 14.6255 5.54669 15.1593 5.87014 15.4951C6.03551 15.6672 6.25658 15.7533 6.47765 15.7533C6.68859 15.7533 6.89953 15.6746 7.06321 15.5171L13.2164 9.58664C13.2282 9.57482 13.2327 9.55852 13.2445 9.54615C13.2535 9.53772 13.2631 9.53152 13.2721 9.52254C13.3199 9.47244 13.3452 9.41111 13.3778 9.35375Z" fill="#BFBFBF"/>
</g>
<defs>
<clipPath id="clip0_454_34287">
<rect width="18" height="18" fill="white"/>
</clipPath>
</defs>
</svg>
