<svg width="29" height="28" viewBox="0 0 29 28" fill="none" xmlns="http://www.w3.org/2000/svg">
<g clip-path="url(#clip0_1210_38063)">
<path d="M24.5491 13.6163C25.2645 13.3727 25.7447 12.6881 25.7447 11.9139V10.7239C25.7447 8.95574 24.4231 7.49274 22.7165 7.26594C22.6801 7.24354 22.6423 7.22254 22.6003 7.20854L10.4721 3.00294C9.0581 2.51294 7.4817 3.25494 6.9581 4.65634L5.9795 7.27574C4.3079 7.53194 3.02271 8.98094 3.02271 10.7239V11.9195C3.02271 12.6909 3.5001 13.3741 4.2099 13.6205C5.1955 13.9621 5.8591 14.8931 5.8591 15.9361C5.8591 16.9791 5.1969 17.9101 4.2099 18.2517C3.5001 18.4981 3.02271 19.1813 3.02271 19.9527V21.1497C3.02271 23.0747 4.5879 24.6399 6.5129 24.6399H22.2559C24.1809 24.6399 25.7461 23.0747 25.7461 21.1497V19.9611C25.7461 19.1855 25.2659 18.5009 24.5505 18.2573C23.5565 17.9185 22.8873 16.9861 22.8873 15.9375C22.8873 14.8889 23.5551 13.9551 24.5491 13.6163ZM8.0067 5.04694C8.3189 4.20974 9.2611 3.76734 10.1039 4.05994L19.2557 7.23374H7.1905L8.0067 5.04694ZM24.1879 19.3171C24.4455 19.4053 24.6247 19.6685 24.6247 19.9597V21.1483C24.6247 22.4545 23.5621 23.5185 22.2545 23.5185H6.5115C5.2053 23.5185 4.1413 22.4559 4.1413 21.1483V19.9513C4.1413 19.6573 4.3163 19.3997 4.5753 19.3087C5.27633 19.0653 5.88417 18.6097 6.31443 18.005C6.74469 17.4004 6.97602 16.6768 6.9763 15.9347C6.9763 14.4157 6.0117 13.0591 4.5753 12.5607C4.3163 12.4711 4.1413 12.2121 4.1413 11.9181V10.7239C4.1413 9.41774 5.2039 8.35374 6.5115 8.35374H22.2545C23.5607 8.35374 24.6247 9.41634 24.6247 10.7239V11.9139C24.6247 12.2093 24.4497 12.4669 24.1879 12.5565C22.7389 13.0493 21.7659 14.4073 21.7659 15.9375C21.7659 17.4677 22.7403 18.8243 24.1879 19.3171Z" fill="#7F7C7C"/>
<path d="M18.2434 13.223H10.885C10.5756 13.223 10.325 13.4736 10.325 13.783C10.325 14.0924 10.5756 14.343 10.885 14.343H18.2434C18.5528 14.343 18.8034 14.0924 18.8034 13.783C18.8034 13.4736 18.5528 13.223 18.2434 13.223ZM18.2434 17.2886H10.885C10.5756 17.2886 10.325 17.5392 10.325 17.8486C10.325 18.158 10.5756 18.4086 10.885 18.4086H18.2434C18.5528 18.4086 18.8034 18.158 18.8034 17.8486C18.8034 17.5392 18.5528 17.2886 18.2434 17.2886Z" fill="#7F7C7C"/>
</g>
<defs>
<clipPath id="clip0_1210_38063">
<rect width="28" height="28" fill="white" transform="translate(0.333252)"/>
</clipPath>
</defs>
</svg>
