<svg width="70" height="70" viewBox="0 0 70 70" fill="none" xmlns="http://www.w3.org/2000/svg">
<g clip-path="url(#clip0_412_39080)">
<path d="M24.0625 17.5H52.5V21.875H24.0625V17.5ZM52.5 52.5H24.0625V48.125H52.5V52.5ZM24.0625 32.8125H52.5V37.1875H24.0625V32.8125ZM61.25 67.8125H13.125C11.3845 67.8125 9.71532 67.1211 8.48461 65.8904C7.2539 64.6597 6.5625 62.9905 6.5625 61.25V54.6875H10.9375V61.25C10.9375 61.8302 11.168 62.3866 11.5782 62.7968C11.9884 63.207 12.5448 63.4375 13.125 63.4375H61.25C61.8302 63.4375 62.3866 63.207 62.7968 62.7968C63.207 62.3866 63.4375 61.8302 63.4375 61.25V8.75C63.4375 8.16984 63.207 7.61344 62.7968 7.2032C62.3866 6.79297 61.8302 6.5625 61.25 6.5625H13.125C12.5448 6.5625 11.9884 6.79297 11.5782 7.2032C11.168 7.61344 10.9375 8.16984 10.9375 8.75V15.3125H6.5625V8.75C6.5625 7.00952 7.2539 5.34032 8.48461 4.10961C9.71532 2.8789 11.3845 2.1875 13.125 2.1875H61.25C62.9905 2.1875 64.6597 2.8789 65.8904 4.10961C67.1211 5.34032 67.8125 7.00952 67.8125 8.75V61.25C67.8125 62.9905 67.1211 64.6597 65.8904 65.8904C64.6597 67.1211 62.9905 67.8125 61.25 67.8125ZM15.3125 19.6875C15.3125 20.2677 15.082 20.8241 14.6718 21.2343C14.2616 21.6445 13.7052 21.875 13.125 21.875H4.375C3.79484 21.875 3.23844 21.6445 2.8282 21.2343C2.41797 20.8241 2.1875 20.2677 2.1875 19.6875C2.1875 19.1073 2.41797 18.5509 2.8282 18.1407C3.23844 17.7305 3.79484 17.5 4.375 17.5H13.125C13.7052 17.5 14.2616 17.7305 14.6718 18.1407C15.082 18.5509 15.3125 19.1073 15.3125 19.6875ZM10.9375 24.0625V45.9375H6.5625V24.0625H10.9375ZM4.375 48.125H13.125C13.7052 48.125 14.2616 48.3555 14.6718 48.7657C15.082 49.1759 15.3125 49.7323 15.3125 50.3125C15.3125 50.8927 15.082 51.4491 14.6718 51.8593C14.2616 52.2695 13.7052 52.5 13.125 52.5H4.375C3.79484 52.5 3.23844 52.2695 2.8282 51.8593C2.41797 51.4491 2.1875 50.8927 2.1875 50.3125C2.1875 49.7323 2.41797 49.1759 2.8282 48.7657C3.23844 48.3555 3.79484 48.125 4.375 48.125Z" fill="#BFBFBF"/>
</g>
<defs>
<clipPath id="clip0_412_39080">
<rect width="70" height="70" fill="white"/>
</clipPath>
</defs>
</svg>
