<svg width="14" height="14" viewBox="0 0 14 14" fill="none" xmlns="http://www.w3.org/2000/svg">
<path d="M9.39122 4.93135C9.39122 5.06534 9.38165 5.19932 9.36388 5.33194C9.37071 5.28409 9.37618 5.23624 9.38302 5.18838C9.34747 5.44131 9.28048 5.68741 9.18341 5.92256C9.20118 5.87881 9.22032 5.83643 9.2381 5.79268C9.13966 6.02647 9.01114 6.24659 8.85528 6.44893C8.884 6.41202 8.91134 6.37647 8.94005 6.33956C8.78559 6.53913 8.60642 6.7183 8.40685 6.87276C8.44376 6.84405 8.47931 6.81671 8.51622 6.78799C8.31388 6.94249 8.09513 7.071 7.85997 7.17081C7.90372 7.15303 7.94611 7.13389 7.98986 7.11612C7.7547 7.21456 7.50861 7.28155 7.25568 7.31573C7.30353 7.30889 7.35138 7.30342 7.39923 7.29659C7.13336 7.33214 6.86393 7.33214 6.59806 7.29659C6.64591 7.30342 6.69376 7.30889 6.74161 7.31573C6.48868 7.28018 6.24259 7.21319 6.00743 7.11612C6.05118 7.13389 6.09357 7.15303 6.13732 7.17081C5.90353 7.07237 5.68341 6.94385 5.48107 6.78799C5.51798 6.81671 5.55353 6.84405 5.59044 6.87276C5.39086 6.7183 5.2117 6.53913 5.05724 6.33956C5.08595 6.37647 5.11329 6.41202 5.142 6.44893C4.98751 6.24659 4.859 6.02784 4.75919 5.79268C4.77697 5.83643 4.79611 5.87881 4.81388 5.92256C4.71544 5.68741 4.64845 5.44131 4.61427 5.18838C4.62111 5.23624 4.62657 5.28409 4.63341 5.33194C4.59786 5.06606 4.59786 4.79664 4.63341 4.53077C4.62657 4.57862 4.62111 4.62647 4.61427 4.67432C4.64982 4.42139 4.71681 4.1753 4.81388 3.94014C4.79611 3.98389 4.77697 4.02628 4.75919 4.07003C4.85763 3.83624 4.98614 3.61612 5.142 3.41377C5.11329 3.45069 5.08595 3.48624 5.05724 3.52315C5.21173 3.32354 5.39083 3.14444 5.59044 2.98995C5.55353 3.01866 5.51798 3.046 5.48107 3.07471C5.68341 2.92022 5.90216 2.7917 6.13732 2.6919C6.09357 2.70967 6.05118 2.72881 6.00743 2.74659C6.24259 2.64815 6.48868 2.58116 6.74161 2.54698C6.69376 2.55381 6.64591 2.55928 6.59806 2.56612C6.86466 2.53057 7.134 2.53057 7.39923 2.56612C7.35138 2.55928 7.30353 2.55381 7.25568 2.54698C7.50861 2.58252 7.7547 2.64952 7.98986 2.74659C7.94611 2.72881 7.90372 2.70967 7.85997 2.6919C8.09376 2.79034 8.31388 2.91885 8.51622 3.07471C8.47931 3.046 8.44376 3.01866 8.40685 2.98995C8.60646 3.14444 8.78556 3.32354 8.94005 3.52315C8.91134 3.48624 8.884 3.45069 8.85528 3.41377C9.00978 3.61612 9.13829 3.83487 9.2381 4.07003C9.22032 4.02628 9.20118 3.98389 9.18341 3.94014C9.28185 4.1753 9.34884 4.42139 9.38302 4.67432C9.37618 4.62647 9.37071 4.57862 9.36388 4.53077C9.38165 4.66338 9.39122 4.79737 9.39122 4.93135C9.39122 5.07081 9.45138 5.21573 9.54982 5.31417C9.64415 5.4085 9.79864 5.4796 9.93263 5.47276C10.0734 5.46592 10.2184 5.42081 10.3154 5.31417C10.4125 5.20889 10.474 5.07764 10.474 4.93135C10.4727 4.23545 10.2621 3.52588 9.85607 2.95577C9.74532 2.80127 9.62638 2.64952 9.49513 2.5128C9.36251 2.37471 9.21485 2.25577 9.0631 2.13956C8.78829 1.92901 8.48204 1.77452 8.15802 1.65557C7.82716 1.53389 7.46896 1.47237 7.11759 1.4587C6.76212 1.44502 6.39571 1.49014 6.05392 1.58585C5.39904 1.77042 4.7838 2.15733 4.3504 2.6837C4.22872 2.83135 4.11388 2.98448 4.01544 3.14717C3.91564 3.3126 3.83771 3.4876 3.76388 3.6667C3.62853 3.99483 3.56017 4.3421 3.53282 4.69483C3.50411 5.05167 3.54103 5.41807 3.62443 5.76534C3.70509 6.09893 3.84181 6.42706 4.01954 6.721C4.36954 7.30069 4.89864 7.79288 5.51798 8.07315C5.69435 8.15245 5.87482 8.22628 6.06212 8.27823C6.25353 8.33155 6.4504 8.36163 6.64728 8.38487C7.00548 8.42725 7.36915 8.39991 7.72189 8.32881C8.39181 8.19483 9.02892 7.83526 9.5006 7.34307C9.97501 6.84815 10.3154 6.20421 10.4207 5.52471C10.4508 5.32784 10.474 5.13096 10.474 4.93135C10.474 4.79327 10.4139 4.64561 10.3154 4.54854C10.2211 4.4542 10.0666 4.38311 9.93263 4.38995C9.63868 4.40225 9.39259 4.62784 9.39122 4.93135V4.93135ZM8.74728 10.7433H5.25275C4.97521 10.7433 4.74689 10.5163 4.74689 10.2374V10.1636C4.74689 9.88604 4.97384 9.65772 5.25275 9.65772H8.74728C9.02482 9.65772 9.25314 9.88467 9.25314 10.1636V10.2374C9.25314 10.5163 9.02482 10.7433 8.74728 10.7433Z" fill="#FD7E7E"/>
<path d="M7.07246 12.544H7C6.72246 12.544 6.49414 12.3171 6.49414 12.0382V8.37549C6.49414 8.09795 6.72109 7.86963 7 7.86963H7.07383C7.35137 7.86963 7.57969 8.09658 7.57969 8.37549V12.0382C7.57832 12.3171 7.35136 12.544 7.07246 12.544Z" fill="#FD7E7E"/>
</svg>
