<svg width="28" height="28" viewBox="0 0 28 28" fill="none" xmlns="http://www.w3.org/2000/svg">
<g clip-path="url(#clip0_1210_38051)">
<path d="M19.7947 2.57043H8.22788C5.90948 2.57043 4.02368 4.45623 4.02368 6.77463V21.2128C4.02368 23.5312 5.90948 25.417 8.22788 25.417H17.1585C17.5309 25.417 17.8893 25.312 18.2001 25.1174C18.2253 25.102 18.2491 25.0838 18.2743 25.067C18.2981 25.0502 18.3233 25.0348 18.3471 25.0166C18.3947 24.9802 18.4423 24.941 18.4871 24.9004L23.0301 20.7326C23.6447 20.1684 23.9975 19.3662 23.9975 18.5318V6.77463C23.9989 4.45623 22.1131 2.57043 19.7947 2.57043ZM5.14368 21.2114V6.77463C5.14368 5.07363 6.52688 3.69043 8.22788 3.69043H19.7947C21.4957 3.69043 22.8789 5.07363 22.8789 6.77463V17.9718H19.6645C18.2589 17.9718 17.1165 19.1142 17.1165 20.5198V24.297H8.22788C6.52688 24.297 5.14368 22.9124 5.14368 21.2114ZM18.2365 23.611V20.5198C18.2365 19.733 18.8777 19.0918 19.6645 19.0918H22.7921C22.7921 19.0932 22.7907 19.0946 22.7907 19.096C22.7683 19.166 22.7417 19.2346 22.7109 19.3018C22.7025 19.3214 22.6927 19.3396 22.6829 19.3578C22.6478 19.4287 22.6085 19.4974 22.5653 19.5636C22.5359 19.607 22.5051 19.649 22.4729 19.6896C22.4589 19.7078 22.4449 19.726 22.4295 19.7442C22.3805 19.8002 22.3301 19.8562 22.2741 19.9066L18.2365 23.611Z" fill="#7F7C7C"/>
<path d="M8.92084 9.27222H18.9406C19.25 9.27222 19.5006 9.02162 19.5006 8.71222C19.5006 8.40282 19.25 8.15222 18.9406 8.15222H8.92084C8.61144 8.15222 8.36084 8.40282 8.36084 8.71222C8.36084 9.02162 8.61144 9.27222 8.92084 9.27222ZM8.92084 14.6328H18.9406C19.25 14.6328 19.5006 14.3822 19.5006 14.0728C19.5006 13.7634 19.25 13.5128 18.9406 13.5128H8.92084C8.61144 13.5128 8.36084 13.7634 8.36084 14.0728C8.36084 14.3822 8.61144 14.6328 8.92084 14.6328ZM12.8632 18.935H8.92084C8.61144 18.935 8.36084 19.1856 8.36084 19.495C8.36084 19.8044 8.61144 20.055 8.92084 20.055H12.8632C13.1726 20.055 13.4232 19.8044 13.4232 19.495C13.4232 19.1856 13.1726 18.935 12.8632 18.935Z" fill="#7F7C7C"/>
</g>
<defs>
<clipPath id="clip0_1210_38051">
<rect width="28" height="28" fill="white"/>
</clipPath>
</defs>
</svg>
