<svg width="61" height="60" viewBox="0 0 61 60" fill="none" xmlns="http://www.w3.org/2000/svg">
<g clip-path="url(#clip0_417_39573)">
<path d="M21.125 15H45.5V18.75H21.125V15ZM45.5 45H21.125V41.25H45.5V45ZM21.125 28.125H45.5V31.875H21.125V28.125ZM53 58.125H11.75C10.2582 58.125 8.82742 57.5324 7.77252 56.4775C6.71763 55.4226 6.125 53.9918 6.125 52.5V46.875H9.875V52.5C9.875 52.9973 10.0725 53.4742 10.4242 53.8258C10.7758 54.1775 11.2527 54.375 11.75 54.375H53C53.4973 54.375 53.9742 54.1775 54.3258 53.8258C54.6775 53.4742 54.875 52.9973 54.875 52.5V7.5C54.875 7.00272 54.6775 6.52581 54.3258 6.17417C53.9742 5.82254 53.4973 5.625 53 5.625H11.75C11.2527 5.625 10.7758 5.82254 10.4242 6.17417C10.0725 6.52581 9.875 7.00272 9.875 7.5V13.125H6.125V7.5C6.125 6.00816 6.71763 4.57742 7.77252 3.52252C8.82742 2.46763 10.2582 1.875 11.75 1.875H53C54.4918 1.875 55.9226 2.46763 56.9775 3.52252C58.0324 4.57742 58.625 6.00816 58.625 7.5V52.5C58.625 53.9918 58.0324 55.4226 56.9775 56.4775C55.9226 57.5324 54.4918 58.125 53 58.125ZM13.625 16.875C13.625 17.3723 13.4275 17.8492 13.0758 18.2008C12.7242 18.5525 12.2473 18.75 11.75 18.75H4.25C3.75272 18.75 3.27581 18.5525 2.92417 18.2008C2.57254 17.8492 2.375 17.3723 2.375 16.875C2.375 16.3777 2.57254 15.9008 2.92417 15.5492C3.27581 15.1975 3.75272 15 4.25 15H11.75C12.2473 15 12.7242 15.1975 13.0758 15.5492C13.4275 15.9008 13.625 16.3777 13.625 16.875ZM9.875 20.625V39.375H6.125V20.625H9.875ZM4.25 41.25H11.75C12.2473 41.25 12.7242 41.4475 13.0758 41.7992C13.4275 42.1508 13.625 42.6277 13.625 43.125C13.625 43.6223 13.4275 44.0992 13.0758 44.4508C12.7242 44.8025 12.2473 45 11.75 45H4.25C3.75272 45 3.27581 44.8025 2.92417 44.4508C2.57254 44.0992 2.375 43.6223 2.375 43.125C2.375 42.6277 2.57254 42.1508 2.92417 41.7992C3.27581 41.4475 3.75272 41.25 4.25 41.25Z" fill="#BFBFBF"/>
</g>
<defs>
<clipPath id="clip0_417_39573">
<rect width="60" height="60" fill="white" transform="translate(0.5)"/>
</clipPath>
</defs>
</svg>
