<svg width="93" height="60" viewBox="0 0 93 60" fill="none" xmlns="http://www.w3.org/2000/svg">
<path d="M24.3895 4.12909C22.1077 4.12909 20.2513 5.9814 20.2513 8.25818V44.5942C20.2513 46.8709 22.1077 48.7233 24.3895 48.7233H56.7713C59.0531 48.7233 60.9095 46.8709 60.9095 44.5942V8.25818C60.9095 5.9814 59.0531 4.12909 56.7713 4.12909H24.3895ZM24.3895 0H56.7713C61.3423 0 65.0477 3.69729 65.0477 8.25818V44.5942C65.0477 49.1551 61.3423 52.8523 56.7713 52.8523H24.3895C19.8185 52.8523 16.113 49.1551 16.113 44.5942V8.25818C16.113 3.69729 19.8185 0 24.3895 0Z" fill="#BFBFBF"/>
<path d="M28.631 22.297H52.6328C52.7974 22.297 52.9553 22.3622 53.0717 22.4784C53.1881 22.5945 53.2535 22.7521 53.2535 22.9163V25.8067C53.2535 25.971 53.1881 26.1285 53.0717 26.2447C52.9553 26.3608 52.7974 26.4261 52.6328 26.4261H28.631C28.4663 26.4261 28.3084 26.3608 28.192 26.2447C28.0756 26.1285 28.0102 25.971 28.0102 25.8067V22.9163C28.0102 22.7521 28.0756 22.5945 28.192 22.4784C28.3084 22.3622 28.4663 22.297 28.631 22.297ZM28.631 32.31H52.6328C52.7974 32.31 52.9553 32.3753 53.0717 32.4914C53.1881 32.6076 53.2535 32.7651 53.2535 32.9294V35.8197C53.2535 35.984 53.1881 36.1416 53.0717 36.2577C52.9553 36.3739 52.7974 36.4391 52.6328 36.4391H28.631C28.4663 36.4391 28.3084 36.3739 28.192 36.2577C28.0756 36.1416 28.0102 35.984 28.0102 35.8197V32.9294C28.0102 32.7651 28.0756 32.6076 28.192 32.4914C28.3084 32.3753 28.4663 32.31 28.631 32.31ZM28.631 12.2839H52.6328C52.7974 12.2839 52.9553 12.3492 53.0717 12.4653C53.1881 12.5815 53.2535 12.739 53.2535 12.9033V15.7937C53.2535 15.9579 53.1881 16.1155 53.0717 16.2316C52.9553 16.3478 52.7974 16.413 52.6328 16.413H28.631C28.4663 16.413 28.3084 16.3478 28.192 16.2316C28.0756 16.1155 28.0102 15.9579 28.0102 15.7937V12.9033C28.0102 12.739 28.0756 12.5815 28.192 12.4653C28.3084 12.3492 28.4663 12.2839 28.631 12.2839ZM13.7333 12.9033H22.9409C23.1055 12.9033 23.2634 12.9686 23.3798 13.0847C23.4962 13.2009 23.5616 13.3584 23.5616 13.5227V16.413C23.5616 16.5773 23.4962 16.7348 23.3798 16.851C23.2634 16.9671 23.1055 17.0324 22.9409 17.0324H13.7333C13.5687 17.0324 13.4108 16.9671 13.2944 16.851C13.1779 16.7348 13.1125 16.5773 13.1125 16.413V13.5227C13.1125 13.3584 13.1779 13.2009 13.2944 13.0847C13.4108 12.9686 13.5687 12.9033 13.7333 12.9033ZM13.7333 35.8197H22.9409C23.1055 35.8197 23.2634 35.885 23.3798 36.0012C23.4962 36.1173 23.5616 36.2748 23.5616 36.4391V39.3295C23.5616 39.4937 23.4962 39.6513 23.3798 39.7674C23.2634 39.8836 23.1055 39.9488 22.9409 39.9488H13.7333C13.5687 39.9488 13.4108 39.8836 13.2944 39.7674C13.1779 39.6513 13.1125 39.4937 13.1125 39.3295V36.4391C13.1125 36.2748 13.1779 36.1173 13.2944 36.0012C13.4108 35.885 13.5687 35.8197 13.7333 35.8197Z" fill="#BFBFBF"/>
<line x1="3" y1="57.5" x2="67.7419" y2="57.5" stroke="#BFBFBF" stroke-width="5" stroke-linecap="round"/>
<line x1="83.8708" y1="57.5" x2="89.9999" y2="57.5" stroke="#BFBFBF" stroke-width="5" stroke-linecap="round"/>
<ellipse cx="75.8065" cy="58.125" rx="1.85484" ry="1.875" fill="#BFBFBF"/>
</svg>
