<svg width="28" height="28" viewBox="0 0 28 28" fill="none" xmlns="http://www.w3.org/2000/svg">
<path d="M19.7947 2.57031H8.22788C5.90948 2.57031 4.02368 4.45611 4.02368 6.77451V21.2127C4.02368 23.5311 5.90948 25.4169 8.22788 25.4169H17.1585C17.5309 25.4169 17.8893 25.3119 18.2001 25.1173C18.2253 25.1019 18.2491 25.0837 18.2743 25.0669C18.2981 25.0501 18.3233 25.0347 18.3471 25.0165C18.3947 24.9801 18.4423 24.9409 18.4871 24.9003L23.0301 20.7325C23.6447 20.1683 23.9975 19.3661 23.9975 18.5317V6.77451C23.9989 4.45611 22.1131 2.57031 19.7947 2.57031ZM5.14368 21.2113V6.77451C5.14368 5.07351 6.52688 3.69031 8.22788 3.69031H19.7947C21.4957 3.69031 22.8789 5.07351 22.8789 6.77451V17.9717H19.6645C18.2589 17.9717 17.1165 19.1141 17.1165 20.5197V24.2969H8.22788C6.52688 24.2969 5.14368 22.9123 5.14368 21.2113ZM18.2365 23.6109V20.5197C18.2365 19.7329 18.8777 19.0917 19.6645 19.0917H22.7921C22.7921 19.0931 22.7907 19.0945 22.7907 19.0959C22.7683 19.1659 22.7417 19.2345 22.7109 19.3017C22.7025 19.3213 22.6927 19.3395 22.6829 19.3577C22.6478 19.4286 22.6085 19.4973 22.5653 19.5635C22.5359 19.6069 22.5051 19.6489 22.4729 19.6895C22.4589 19.7077 22.4449 19.7259 22.4295 19.7441C22.3805 19.8001 22.3301 19.8561 22.2741 19.9065L18.2365 23.6109Z" fill="#7F7C7C"/>
<path d="M8.92084 9.2721H18.9406C19.25 9.2721 19.5006 9.0215 19.5006 8.7121C19.5006 8.4027 19.25 8.1521 18.9406 8.1521H8.92084C8.61144 8.1521 8.36084 8.4027 8.36084 8.7121C8.36084 9.0215 8.61144 9.2721 8.92084 9.2721ZM8.92084 14.6327H18.9406C19.25 14.6327 19.5006 14.3821 19.5006 14.0727C19.5006 13.7633 19.25 13.5127 18.9406 13.5127H8.92084C8.61144 13.5127 8.36084 13.7633 8.36084 14.0727C8.36084 14.3821 8.61144 14.6327 8.92084 14.6327ZM12.8632 18.9349H8.92084C8.61144 18.9349 8.36084 19.1855 8.36084 19.4949C8.36084 19.8043 8.61144 20.0549 8.92084 20.0549H12.8632C13.1726 20.0549 13.4232 19.8043 13.4232 19.4949C13.4232 19.1855 13.1726 18.9349 12.8632 18.9349Z" fill="#7F7C7C"/>
</svg>
