<svg width="56" height="56" viewBox="0 0 56 56" fill="none" xmlns="http://www.w3.org/2000/svg">
<g filter="url(#filter0_d_724_52037)">
<path d="M41.56 10.02H31.64C30.14 10.02 28.8 10.78 28 11.92C27.2 10.78 25.86 10.02 24.36 10.02H14.44C12 10.02 10 12.02 10 14.46V38.96C10 41.42 12 43.4 14.44 43.4H22.7C23.96 45.02 25.9 45.96 27.98 45.96C30.04 45.96 31.98 45 33.26 43.4H41.52C43.98 43.4 45.96 41.4 45.96 38.96V14.46C46 12.02 44 10.02 41.56 10.02ZM44.4 38.96C44.4 40.52 43.12 41.8 41.56 41.8H32.88C32.62 41.8 32.36 41.94 32.22 42.14C31.26 43.52 29.7 44.36 28.02 44.36C26.34 44.36 24.76 43.54 23.82 42.14C23.68 41.92 23.42 41.8 23.16 41.8H14.48C12.92 41.8 11.64 40.52 11.64 38.96V14.46C11.64 12.9 12.92 11.62 14.48 11.62H24.4C25.96 11.62 27.24 12.9 27.24 14.46V32.6C27.24 33.04 27.6 33.4 28.04 33.4C28.48 33.4 28.84 33.04 28.84 32.6V14.46C28.84 12.9 30.12 11.62 31.68 11.62H41.6C43.16 11.62 44.44 12.9 44.44 14.46V38.96H44.4Z" fill="#FDBF47"/>
<path d="M22.34 17.42H16.4C15.96 17.42 15.6 17.78 15.6 18.22C15.6 18.66 15.96 19.02 16.4 19.02H22.32C22.76 19.02 23.12 18.66 23.12 18.22C23.12 17.78 22.78 17.42 22.34 17.42ZM22.34 25.86H16.4C15.96 25.86 15.6 26.22 15.6 26.66C15.6 27.1 15.96 27.46 16.4 27.46H22.32C22.76 27.46 23.12 27.1 23.12 26.66C23.12 26.22 22.78 25.86 22.34 25.86ZM22.34 34.28H16.4C15.96 34.28 15.6 34.64 15.6 35.08C15.6 35.52 15.96 35.88 16.4 35.88H22.32C22.76 35.88 23.12 35.52 23.12 35.08C23.14 34.64 22.78 34.28 22.34 34.28ZM39.56 17.42H33.64C33.2 17.42 32.84 17.78 32.84 18.22C32.84 18.66 33.2 19.02 33.64 19.02H39.56C40 19.02 40.36 18.66 40.36 18.22C40.36 17.78 40 17.42 39.56 17.42ZM39.56 25.86H33.64C33.2 25.86 32.84 26.22 32.84 26.66C32.84 27.1 33.2 27.46 33.64 27.46H39.56C40 27.46 40.36 27.1 40.36 26.66C40.36 26.22 40 25.86 39.56 25.86ZM39.56 34.28H33.64C33.2 34.28 32.84 34.64 32.84 35.08C32.84 35.52 33.2 35.88 33.64 35.88H39.56C40 35.88 40.36 35.52 40.36 35.08C40.36 34.64 40 34.28 39.56 34.28Z" fill="#FDBF47"/>
</g>
<defs>
<filter id="filter0_d_724_52037" x="-4" y="-4" width="64" height="64" filterUnits="userSpaceOnUse" color-interpolation-filters="sRGB">
<feFlood flood-opacity="0" result="BackgroundImageFix"/>
<feColorMatrix in="SourceAlpha" type="matrix" values="0 0 0 0 0 0 0 0 0 0 0 0 0 0 0 0 0 0 127 0" result="hardAlpha"/>
<feOffset/>
<feGaussianBlur stdDeviation="2"/>
<feComposite in2="hardAlpha" operator="out"/>
<feColorMatrix type="matrix" values="0 0 0 0 0 0 0 0 0 0 0 0 0 0 0 0 0 0 0.1 0"/>
<feBlend mode="normal" in2="BackgroundImageFix" result="effect1_dropShadow_724_52037"/>
<feBlend mode="normal" in="SourceGraphic" in2="effect1_dropShadow_724_52037" result="shape"/>
</filter>
</defs>
</svg>
