<svg width="29" height="28" viewBox="0 0 29 28" fill="none" xmlns="http://www.w3.org/2000/svg">
<g clip-path="url(#clip0_1210_38057)">
<path d="M21.8208 4.65362H19.5976V3.32782C19.5976 3.01842 19.347 2.76782 19.0376 2.76782C18.7282 2.76782 18.4776 3.01842 18.4776 3.32782V4.65362H11.0786V3.32782C11.0786 3.01842 10.828 2.76782 10.5186 2.76782C10.2092 2.76782 9.95864 3.01842 9.95864 3.32782V4.65362H7.56604C5.11744 4.65362 3.12524 6.64582 3.12524 9.09443V20.2566C3.12524 22.7052 5.11744 24.6974 7.56604 24.6974H21.8208C23.5036 24.6974 24.9722 23.7552 25.724 22.372C25.7926 22.246 25.8556 22.1172 25.9116 21.9842C25.9676 21.8512 26.018 21.7154 26.0614 21.5768C26.1946 21.1499 26.2621 20.7052 26.2616 20.258V9.09443C26.2602 6.64582 24.2694 4.65362 21.8208 4.65362ZM7.56604 5.77362H9.95864V7.22402C9.95864 7.53342 10.2092 7.78402 10.5186 7.78402C10.828 7.78402 11.0786 7.53342 11.0786 7.22402V5.77362H18.4776V7.22402C18.4776 7.53342 18.7282 7.78402 19.0376 7.78402C19.347 7.78402 19.5976 7.53342 19.5976 7.22402V5.77362H21.8208C23.652 5.77362 25.1416 7.26323 25.1416 9.09443V9.74543H4.24524V9.09443C4.24524 7.26323 5.73484 5.77362 7.56604 5.77362ZM7.56604 23.5774C5.73484 23.5774 4.24524 22.0878 4.24524 20.2566V10.8654H25.1402V20.2566C25.1402 20.4848 25.1164 20.7088 25.073 20.9244C24.7622 22.4364 23.4224 23.576 21.8194 23.576H7.56604V23.5774Z" fill="#7F7C7C"/>
<path d="M10.8435 14.889H8.54047C8.23107 14.889 7.98047 15.1396 7.98047 15.449C7.98047 15.7584 8.23107 16.009 8.54047 16.009H10.8435C11.1529 16.009 11.4035 15.7584 11.4035 15.449C11.4035 15.1396 11.1529 14.889 10.8435 14.889ZM15.9143 14.889H13.6113C13.3019 14.889 13.0513 15.1396 13.0513 15.449C13.0513 15.7584 13.3019 16.009 13.6113 16.009H15.9143C16.2237 16.009 16.4743 15.7584 16.4743 15.449C16.4743 15.1396 16.2237 14.889 15.9143 14.889ZM20.9753 14.889H18.6709C18.3615 14.889 18.1109 15.1396 18.1109 15.449C18.1109 15.7584 18.3615 16.009 18.6709 16.009H20.9739C21.2833 16.009 21.5339 15.7584 21.5339 15.449C21.5339 15.1396 21.2847 14.889 20.9753 14.889ZM10.8435 18.228H8.54047C8.23107 18.228 7.98047 18.4786 7.98047 18.788C7.98047 19.0974 8.23107 19.348 8.54047 19.348H10.8435C11.1529 19.348 11.4035 19.0974 11.4035 18.788C11.4035 18.4786 11.1529 18.228 10.8435 18.228ZM15.9143 18.228H13.6113C13.3019 18.228 13.0513 18.4786 13.0513 18.788C13.0513 19.0974 13.3019 19.348 13.6113 19.348H15.9143C16.2237 19.348 16.4743 19.0974 16.4743 18.788C16.4743 18.4786 16.2237 18.228 15.9143 18.228Z" fill="#7F7C7C"/>
</g>
<defs>
<clipPath id="clip0_1210_38057">
<rect width="28" height="28" fill="white" transform="translate(0.666748)"/>
</clipPath>
</defs>
</svg>
