<svg width="28" height="28" viewBox="0 0 28 28" fill="none" xmlns="http://www.w3.org/2000/svg">
<g clip-path="url(#clip0_1210_37781)">
<path d="M21.0139 4.26298H19.4795C19.2877 2.86858 18.0907 1.78918 16.6445 1.78918H11.8271C10.3809 1.78918 9.18394 2.86858 8.99214 4.26298H7.45634C5.36194 4.26298 3.65674 5.96679 3.65674 8.06259V21.8176C3.65674 23.912 5.36054 25.6172 7.45634 25.6172H21.0139C23.1083 25.6172 24.8135 23.9134 24.8135 21.8176V8.06259C24.8135 5.96679 23.1097 4.26298 21.0139 4.26298ZM11.8271 2.90918H16.6445C17.6063 2.90918 18.3903 3.69178 18.3903 4.65499C18.3903 4.69699 18.3875 4.73759 18.3847 4.77819C18.3847 4.77959 18.3847 4.78098 18.3833 4.78238C18.3343 5.46139 17.8933 6.03118 17.2927 6.27339C17.2899 6.27479 17.2857 6.27619 17.2829 6.27759C17.2367 6.29578 17.1891 6.31259 17.1415 6.32659L17.1093 6.33499C17.0673 6.34619 17.0253 6.35739 16.9833 6.36579C16.9609 6.36999 16.9371 6.37279 16.9147 6.37699C16.8825 6.38259 16.8503 6.38819 16.8181 6.39099C16.7621 6.39659 16.7047 6.39938 16.6459 6.39938H11.8271C11.7683 6.39938 11.7123 6.39659 11.6549 6.39099C11.6227 6.38819 11.5905 6.38259 11.5583 6.37699C11.5359 6.37279 11.5121 6.37139 11.4897 6.36579C11.4477 6.35739 11.4057 6.34619 11.3637 6.33499C11.3525 6.33219 11.3413 6.32939 11.3315 6.32659C11.2839 6.31259 11.2363 6.29578 11.1901 6.27759C11.1873 6.27619 11.1831 6.27479 11.1803 6.27339C10.5797 6.03118 10.1387 5.46139 10.0897 4.78238C10.0897 4.78098 10.0883 4.77958 10.0883 4.77678C10.0855 4.73618 10.0827 4.69558 10.0827 4.65358C10.0813 3.69178 10.8639 2.90918 11.8271 2.90918ZM23.6935 21.8176C23.6935 23.2946 22.4909 24.4972 21.0139 24.4972H7.45634C5.97934 24.4972 4.77674 23.2946 4.77674 21.8176V8.06259C4.77674 6.58559 5.97934 5.38298 7.45634 5.38298H9.05794C9.05934 5.38858 9.06214 5.39419 9.06354 5.39979C9.08174 5.46698 9.10274 5.53418 9.12514 5.59998C9.12794 5.60838 9.13074 5.61679 9.13494 5.62519C9.27716 6.0169 9.50282 6.37302 9.79628 6.6689C10.0897 6.96479 10.444 7.19336 10.8345 7.33879C10.9076 7.36651 10.9818 7.3908 11.0571 7.41159C11.0949 7.42279 11.1341 7.43259 11.1733 7.44099C11.2153 7.45079 11.2573 7.46059 11.3007 7.46899C11.3525 7.47879 11.4043 7.48579 11.4561 7.49279C11.4897 7.49699 11.5233 7.50258 11.5583 7.50538C11.6465 7.51378 11.7361 7.51939 11.8271 7.51939H16.6445C16.7355 7.51939 16.8251 7.51378 16.9133 7.50538C16.9483 7.50258 16.9819 7.49699 17.0155 7.49279C17.0673 7.48579 17.1191 7.47879 17.1709 7.46899C17.2143 7.46059 17.2563 7.45079 17.2983 7.44099C17.3375 7.43119 17.3753 7.42139 17.4131 7.41159C17.4621 7.39759 17.5111 7.38359 17.5587 7.36679C17.5839 7.35839 17.6091 7.34859 17.6357 7.33879C18.026 7.1937 18.3801 6.96558 18.6736 6.6702C18.967 6.37481 19.1928 6.01921 19.3353 5.62799C19.3395 5.61819 19.3423 5.60838 19.3465 5.59858C19.3689 5.53418 19.3885 5.46838 19.4067 5.40258C19.4081 5.39558 19.4109 5.38998 19.4123 5.38298H21.0139C22.4909 5.38298 23.6935 6.58559 23.6935 8.06259V21.8176Z" fill="#7F7C7C"/>
<path d="M19.6505 11.2756C19.5919 11.2312 19.5251 11.1987 19.4539 11.1802C19.3828 11.1616 19.3087 11.1573 19.2358 11.1675C19.163 11.1776 19.0929 11.202 19.0295 11.2393C18.9661 11.2766 18.9107 11.326 18.8665 11.3848L14.0099 17.8066C13.9231 17.9214 13.7957 17.9914 13.6515 18.0054C13.5059 18.018 13.3701 17.9704 13.2651 17.8724L9.92188 14.7756C9.81233 14.6783 9.669 14.6278 9.52265 14.635C9.37631 14.6422 9.23861 14.7064 9.13911 14.814C9.03961 14.9216 8.98625 15.0638 8.99047 15.2103C8.99469 15.3567 9.05615 15.4957 9.16168 15.5974L12.5049 18.6942C12.8059 18.9728 13.2021 19.1268 13.6095 19.1268C13.6571 19.1268 13.7047 19.1254 13.7509 19.1212C14.2073 19.0806 14.6273 18.8482 14.9031 18.4828L19.7597 12.061C19.9459 11.8132 19.8983 11.4618 19.6505 11.2756Z" fill="#7F7C7C"/>
</g>
<defs>
<clipPath id="clip0_1210_37781">
<rect width="28" height="28" fill="white"/>
</clipPath>
</defs>
</svg>
